<svg xmlns="http://www.w3.org/2000/svg" viewBox="0 0 948.48 460.16"><defs><style>.cls-1,.cls-3{isolation:isolate;font-family:SegoeUISymbol, Segoe UI Symbol;}.cls-1{font-size:50px;}.cls-1,.cls-3,.cls-4{fill:#36485c;}.cls-2{font-size:12px;font-family:MyriadPro-Regular, Myriad Pro;}.cls-3{opacity:0.25;font-size:25px;}.cls-5{fill:#d3e2dc;}.cls-5,.cls-6{stroke:#209166;stroke-miterlimit:10;}.cls-6{fill:none;}.cls-7{fill:#40b281;}</style></defs><title>Asset 18</title><g id="Layer_2" data-name="Layer 2"><g id="Layer_1-2" data-name="Layer 1"><text class="cls-1" transform="translate(243.5 104.43)">Includes in JavaScript</text><text class="cls-2" transform="translate(0 10.04)">.</text><text class="cls-2" transform="translate(946 10.04)">.</text><text class="cls-2" transform="translate(946 457.04)">.</text><text class="cls-2" transform="translate(0 457.04)">.</text><text class="cls-3" transform="translate(729.5 440.43)">coffeequery.com</text><path class="cls-4" d="M839,170"/><polyline class="cls-5" points="641.98 229.13 641.98 396.17 439.02 396.17 439.02 193.2 605.02 193.2"/><polygon class="cls-5" points="641.98 230.13 603.68 230.13 603.68 193.2 619.27 208.23 641.98 230.13"/><line class="cls-6" x1="453.02" y1="230.13" x2="590.02" y2="230.13"/><line class="cls-6" x1="453.02" y1="250.13" x2="626.02" y2="250.13"/><line class="cls-6" x1="453.02" y1="269.13" x2="626.02" y2="269.13"/><line class="cls-6" x1="453.02" y1="288.13" x2="626.02" y2="288.13"/><line class="cls-6" x1="453.02" y1="307.13" x2="626.02" y2="307.13"/><line class="cls-6" x1="454.02" y1="325.13" x2="627.02" y2="325.13"/><line class="cls-6" x1="454.02" y1="344.13" x2="627.02" y2="344.13"/><line class="cls-6" x1="454.02" y1="363.13" x2="627.02" y2="363.13"/><line class="cls-6" x1="454.02" y1="382.13" x2="627.02" y2="382.13"/><polyline class="cls-5" points="458.71 245.94 458.71 370.15 307.79 370.15 307.79 219.22 431.23 219.22"/><polygon class="cls-5" points="458.71 246.68 430.24 246.68 430.24 219.22 441.83 230.4 458.71 246.68"/><line class="cls-6" x1="318.2" y1="246.68" x2="420.07" y2="246.68"/><line class="cls-6" x1="318.2" y1="261.55" x2="446.84" y2="261.55"/><line class="cls-6" x1="318.2" y1="275.68" x2="446.84" y2="275.68"/><line class="cls-6" x1="318.2" y1="289.81" x2="446.84" y2="289.81"/><line class="cls-6" x1="318.2" y1="303.94" x2="446.84" y2="303.94"/><line class="cls-6" x1="318.94" y1="317.32" x2="447.59" y2="317.32"/><line class="cls-6" x1="318.94" y1="331.45" x2="447.59" y2="331.45"/><line class="cls-6" x1="318.94" y1="345.58" x2="447.59" y2="345.58"/><line class="cls-6" x1="318.94" y1="359.71" x2="447.59" y2="359.71"/><path class="cls-7" d="M485.94,293.8v2.84H458.71V293.8Z"/><path class="cls-7" d="M487,295.84l-12.6,9.84v-2.85l10.7-8.11v-.08l-10.7-8.11v-2.85l12.6,9.84Z"/></g></g></svg>