<svg xmlns="http://www.w3.org/2000/svg" viewBox="0 0 943.48 460.16"><defs><style>.cls-1,.cls-3{isolation:isolate;font-family:SegoeUISymbol, Segoe UI Symbol;}.cls-1{font-size:50px;}.cls-1,.cls-3,.cls-4{fill:#36485c;}.cls-2{font-size:12px;font-family:MyriadPro-Regular, Myriad Pro;}.cls-3{opacity:0.25;font-size:25px;}.cls-5,.cls-6{fill:none;stroke-miterlimit:10;stroke-width:7px;}.cls-5{stroke:#35465a;}.cls-6{stroke:#16253f;}</style></defs><title>Asset 26</title><g id="Layer_2" data-name="Layer 2"><g id="Layer_1-2" data-name="Layer 1"><text class="cls-1" transform="translate(235.95 89.43)">Filter Array JavaScript</text><text class="cls-2" transform="translate(0 10.04)">.</text><text class="cls-2" transform="translate(941 10.04)">.</text><text class="cls-2" transform="translate(941 452.04)">.</text><text class="cls-2" transform="translate(0 452.04)">.</text><text class="cls-3" transform="translate(724.5 440.43)">coffeequery.com</text><path class="cls-4" d="M834,170"/><path class="cls-5" d="M589,176.68c0,18.57-50.52,33.63-119,33.63s-119-11.22-119-29.8S401.52,143,470,143,589,158.1,589,176.68Z"/><path class="cls-6" d="M348,182.75"/><path class="cls-6" d="M592,182"/><path class="cls-4" d="M591,182.75,508,312.42l-4,86.71s-26,20.06-60,0L436,314,348,182.75s-4,24.77,111,29C566.14,215.71,591,182.75,591,182.75Z"/><path class="cls-6" d="M577.59,188.72"/></g></g></svg>