<svg xmlns="http://www.w3.org/2000/svg" viewBox="0 0 948.48 460.16"><defs><style>.cls-1,.cls-3,.cls-5{isolation:isolate;}.cls-1{font-size:50px;}.cls-1,.cls-3,.cls-4{fill:#36485c;}.cls-1,.cls-3{font-family:SegoeUISymbol, Segoe UI Symbol;}.cls-2{font-size:12px;font-family:MyriadPro-Regular, Myriad Pro;}.cls-3,.cls-5{opacity:0.25;}.cls-3{font-size:25px;}</style></defs><title>Asset 20</title><g id="Layer_2" data-name="Layer 2"><g id="Layer_1-2" data-name="Layer 1"><text class="cls-1" transform="translate(186.95 104.43)">Parse JSON in JavaScript</text><text class="cls-2" transform="translate(0 10.04)">.</text><text class="cls-2" transform="translate(946 10.04)">.</text><text class="cls-2" transform="translate(946 457.04)">.</text><text class="cls-2" transform="translate(0 457.04)">.</text><text class="cls-3" transform="translate(729.5 440.43)">coffeequery.com</text><path class="cls-4" d="M839,170"/><g class="cls-5"><path class="cls-4" d="M394.37,312.73q0,38.54-14.91,59.93T339.57,394q-11.59,0-19-3.63V365.32q7.45,5.9,19.32,5.9,31.33,0,31.33-58.19V173.67h23.19Z"/><path class="cls-4" d="M435.36,381.65V351.72a53,53,0,0,0,11.25,8.16,86.79,86.79,0,0,0,13.8,6.12A102.08,102.08,0,0,0,475,369.86a74.41,74.41,0,0,0,13.53,1.36q21.39,0,32-8.69t10.56-25a31.59,31.59,0,0,0-3.52-15.27,42.42,42.42,0,0,0-9.73-11.87,96.16,96.16,0,0,0-14.7-10.28q-8.49-4.91-18.29-10.35-10.35-5.74-19.33-11.64a84.94,84.94,0,0,1-15.6-13A54.44,54.44,0,0,1,439.44,249a53.89,53.89,0,0,1-3.8-21.08q0-14.81,5.94-25.77a54,54,0,0,1,15.6-18.06,67.83,67.83,0,0,1,22-10.58A92.59,92.59,0,0,1,504.38,170q29.26,0,42.65,7.71v28.57Q529.5,193,502,193a67.92,67.92,0,0,0-15.18,1.74,40.72,40.72,0,0,0-13.53,5.67,31.37,31.37,0,0,0-9.66,10.13q-3.73,6.2-3.73,15.11A33.59,33.59,0,0,0,462.76,240a34.66,34.66,0,0,0,8.35,11,82.73,82.73,0,0,0,13.46,9.67q7.94,4.69,18.29,10.28,10.63,5.75,20.15,12.09a93.68,93.68,0,0,1,16.7,14.06,62.63,62.63,0,0,1,11.39,17.08,51.9,51.9,0,0,1,4.21,21.46q0,16-5.73,27.13a49.92,49.92,0,0,1-15.46,18.06,64.4,64.4,0,0,1-22.43,10.05,112.76,112.76,0,0,1-26.78,3.1,100.11,100.11,0,0,1-11.59-.83q-6.9-.83-14.08-2.42a106.63,106.63,0,0,1-13.6-3.93A40.7,40.7,0,0,1,435.36,381.65Z"/></g></g></g></svg>