<svg xmlns="http://www.w3.org/2000/svg" viewBox="0 0 948.48 460.04"><defs><style>.cls-1,.cls-2,.cls-5{isolation:isolate;}.cls-1{font-size:50px;}.cls-1,.cls-3,.cls-5{fill:#36485c;}.cls-1,.cls-5{font-family:SegoeUISymbol, Segoe UI Symbol;}.cls-2,.cls-5{opacity:0.25;}.cls-4{font-size:12px;font-family:MyriadPro-Regular, Myriad Pro;}.cls-5{font-size:25px;}</style></defs><title>Asset 9</title><g id="Layer_2" data-name="Layer 2"><g id="Layer_1-2" data-name="Layer 1"><text class="cls-1" transform="translate(182.5 104.43)">String Replace JavaScript</text><g class="cls-2"><path class="cls-3" d="M377,320q0,42.56-18,66.18T311,409.84q-14,0-23-4V378.13q9,6.51,23.27,6.51,37.73,0,37.73-64.26V166.5h28Z"/><path class="cls-3" d="M427,396.09v-33a64.08,64.08,0,0,0,13.6,9,110.07,110.07,0,0,0,16.69,6.76,132.71,132.71,0,0,0,17.6,4.26,98.09,98.09,0,0,0,16.35,1.5q25.86,0,38.63-9.6t12.77-27.62a32.43,32.43,0,0,0-4.26-16.85,48,48,0,0,0-11.76-13.1,117,117,0,0,0-17.77-11.35q-10.26-5.42-22.11-11.43-12.52-6.34-23.36-12.85a101.06,101.06,0,0,1-18.86-14.35,59.82,59.82,0,0,1-12.6-17.77q-4.59-9.93-4.59-23.28,0-16.35,7.18-28.45A61.54,61.54,0,0,1,453.37,178,85.52,85.52,0,0,1,480,166.31a121.91,121.91,0,0,1,30.45-3.84q35.38,0,51.56,8.51v31.54q-21.2-14.68-54.4-14.68a89.59,89.59,0,0,0-18.36,1.92A51.87,51.87,0,0,0,472.89,196a36.25,36.25,0,0,0-11.68,11.18q-4.51,6.84-4.51,16.69a34.33,34.33,0,0,0,3.42,15.85,38.81,38.81,0,0,0,10.1,12.18,100.29,100.29,0,0,0,16.27,10.68q9.59,5.17,22.11,11.35,12.85,6.34,24.36,13.35a111.46,111.46,0,0,1,20.19,15.52,69.05,69.05,0,0,1,13.77,18.86,53,53,0,0,1,5.09,23.7q0,17.69-6.93,30a56.82,56.82,0,0,1-18.69,19.94,81.59,81.59,0,0,1-27.12,11.1,148.62,148.62,0,0,1-32.37,3.42,132.33,132.33,0,0,1-14-.92q-8.35-.92-17-2.67a138.41,138.41,0,0,1-16.44-4.34A51.07,51.07,0,0,1,427,396.09Z"/></g><text class="cls-4" transform="translate(0 10.04)">.</text><text class="cls-4" transform="translate(946 10.04)">.</text><text class="cls-4" transform="translate(946 457.04)">.</text><text class="cls-4" transform="translate(0 457.04)">.</text><text class="cls-5" transform="translate(740.5 434.43)">coffeequery.com</text></g></g></svg>