<svg xmlns="http://www.w3.org/2000/svg" viewBox="0 0 75.37 90.96"><defs><style>.cls-1{fill:#5c2a0d;}.cls-2{fill:#bc5b13;}</style></defs><title>Asset 1</title><g id="Layer_2" data-name="Layer 2"><g id="Layer_1-2" data-name="Layer 1"><path class="cls-1" d="M82.78,74.75"/><path class="cls-1" d="M62.11,70.63c15.76-13.44,3.2-12.35,3.2-12.35-7.56,25.13-22.91,28.6-22.91,28.6C16.72,91.15,6.76,67.11,6.76,67.11c7.92,27.71,31.67,23.64,31.67,23.64-9,.78-18.54-1-21.23-2.88-4-2.85-4.66-2.92-7.44-5.76C-4.08,68,.85,49.91.85,49.91s6.44-8.61,20.78-8.56l.47,3.78C11.23,45.63,7,50.83,7,50.83s-3.85,4.67,10,9.35a35,35,0,0,0,10.94,1.76s29.51,1.79,29.87-7.65-24.23-8.94-24.23-8.94L35,41.49s8.4-1.09,20,2.88S65.43,52.9,65.43,52.9l3.81.1s19.37.5-10.76,23.88Z"/><path class="cls-2" d="M30.84,50.15s-.72-8.34,5.31-12.37A33.23,33.23,0,0,0,45,29.52s5.34-6.8,2-12.76c0,0-.06,8.08-7.51,15.25S27.87,41.3,30.84,50.15Z"/><path class="cls-2" d="M27.48,50.15s-2-12.51,4.17-16.7a36.22,36.22,0,0,0,13.67-16.7S49.15,8.5,37.48,0c0,0,9.33,14.5-2.67,24.33S21.48,39,27.48,50.15Z"/></g></g></svg>