<svg xmlns="http://www.w3.org/2000/svg" xmlns:xlink="http://www.w3.org/1999/xlink" viewBox="0 0 1000 300"><defs><style>.cls-1{fill:#41b883;}.cls-2{fill:#288958;}.cls-3{fill:url(#linear-gradient);}.cls-4{fill:url(#linear-gradient-2);}.cls-5{fill:url(#linear-gradient-3);}.cls-6{fill:url(#linear-gradient-4);}.cls-7{fill:url(#linear-gradient-5);}.cls-8{fill:url(#linear-gradient-6);}.cls-9{fill:url(#linear-gradient-7);}.cls-10{fill:url(#linear-gradient-8);}.cls-11{fill:url(#linear-gradient-9);}.cls-12{fill:url(#linear-gradient-10);}.cls-13{fill:url(#linear-gradient-11);}.cls-14{fill:url(#linear-gradient-12);}.cls-15{fill:url(#linear-gradient-13);}.cls-16{fill:url(#linear-gradient-14);}.cls-17{fill:url(#linear-gradient-15);}.cls-18{fill:url(#linear-gradient-16);}.cls-19{fill:url(#linear-gradient-17);}.cls-20{fill:url(#linear-gradient-18);}.cls-21{fill:url(#linear-gradient-19);}.cls-22{fill:url(#linear-gradient-20);}.cls-23{fill:url(#linear-gradient-21);}.cls-24{fill:url(#linear-gradient-22);}.cls-25{fill:url(#linear-gradient-23);}.cls-26{fill:url(#linear-gradient-24);}.cls-27{fill:url(#linear-gradient-25);}.cls-28{fill:url(#linear-gradient-26);}.cls-29{fill:url(#linear-gradient-27);}.cls-30{fill:url(#linear-gradient-28);}.cls-31{fill:url(#linear-gradient-29);}.cls-32{fill:url(#linear-gradient-30);}.cls-33{fill:url(#linear-gradient-31);}.cls-34{fill:url(#linear-gradient-32);}.cls-35{fill:url(#linear-gradient-33);}.cls-36{fill:url(#linear-gradient-34);}.cls-37{fill:url(#linear-gradient-35);}.cls-38{fill:url(#linear-gradient-36);}.cls-39{fill:url(#linear-gradient-37);}.cls-40{fill:url(#linear-gradient-38);}.cls-41{fill:url(#linear-gradient-39);}.cls-42,.cls-43{font-size:20.65px;font-family:ForteMT, Forte;}.cls-42{fill:#646464;}.cls-43{fill:#848484;}</style><linearGradient id="linear-gradient" x1="378.25" y1="246.47" x2="378.25" y2="97.48" gradientUnits="userSpaceOnUse"><stop offset="0.5" stop-color="#22b573"/><stop offset="0.87" stop-color="#ff0"/></linearGradient><linearGradient id="linear-gradient-2" x1="378.25" y1="246.47" x2="378.25" y2="97.48" gradientUnits="userSpaceOnUse"><stop offset="0.5" stop-color="#22b573"/><stop offset="1" stop-color="#ff0"/></linearGradient><linearGradient id="linear-gradient-3" x1="375.28" y1="104.15" x2="375.28" y2="97.15" xlink:href="#linear-gradient"/><linearGradient id="linear-gradient-4" x1="375.28" y1="104.23" x2="375.28" y2="97.07" xlink:href="#linear-gradient-2"/><linearGradient id="linear-gradient-5" x1="381.22" y1="104.98" x2="381.22" y2="97.48" xlink:href="#linear-gradient"/><linearGradient id="linear-gradient-6" x1="381.22" y1="105.05" x2="381.22" y2="97.41" xlink:href="#linear-gradient-2"/><linearGradient id="linear-gradient-7" x1="415.27" y1="247.23" x2="415.27" y2="103.38" gradientUnits="userSpaceOnUse"><stop offset="0.5" stop-color="#22b573"/><stop offset="1" stop-color="blue"/></linearGradient><linearGradient id="linear-gradient-8" x1="412.3" y1="109.91" x2="412.3" y2="102.99" xlink:href="#linear-gradient-7"/><linearGradient id="linear-gradient-9" x1="418.24" y1="110.7" x2="418.24" y2="103.31" xlink:href="#linear-gradient-7"/><linearGradient id="linear-gradient-10" x1="433.09" y1="247.23" x2="433.09" y2="90.6" gradientUnits="userSpaceOnUse"><stop offset="0.54" stop-color="#22b573"/><stop offset="1" stop-color="#ed1c24"/></linearGradient><linearGradient id="linear-gradient-11" x1="430.12" y1="97.7" x2="430.12" y2="90.18" xlink:href="#linear-gradient-10"/><linearGradient id="linear-gradient-12" x1="436.06" y1="98.56" x2="436.06" y2="90.53" xlink:href="#linear-gradient-10"/><linearGradient id="linear-gradient-13" x1="549.68" y1="247.37" x2="549.68" y2="118.11" gradientUnits="userSpaceOnUse"><stop offset="0.57" stop-color="#22b573"/><stop offset="1" stop-color="#2e3192"/></linearGradient><linearGradient id="linear-gradient-14" x1="546.71" y1="123.99" x2="546.71" y2="117.74" xlink:href="#linear-gradient-13"/><linearGradient id="linear-gradient-15" x1="552.66" y1="124.7" x2="552.66" y2="118.03" xlink:href="#linear-gradient-13"/><linearGradient id="linear-gradient-16" x1="396.76" y1="247.56" x2="396.76" y2="110.31" gradientUnits="userSpaceOnUse"><stop offset="0.55" stop-color="#22b573"/><stop offset="1" stop-color="aqua"/></linearGradient><linearGradient id="linear-gradient-17" x1="393.79" y1="116.55" x2="393.79" y2="109.93" xlink:href="#linear-gradient-16"/><linearGradient id="linear-gradient-18" x1="399.73" y1="117.3" x2="399.73" y2="110.24" xlink:href="#linear-gradient-16"/><linearGradient id="linear-gradient-19" x1="567.46" y1="247.4" x2="567.46" y2="124.98" gradientUnits="userSpaceOnUse"><stop offset="0.54" stop-color="#22b573"/><stop offset="1" stop-color="lime"/></linearGradient><linearGradient id="linear-gradient-20" x1="564.49" y1="130.56" x2="564.49" y2="124.63" xlink:href="#linear-gradient-19"/><linearGradient id="linear-gradient-21" x1="570.43" y1="131.23" x2="570.43" y2="124.91" xlink:href="#linear-gradient-19"/><linearGradient id="linear-gradient-22" x1="482.45" y1="248" x2="482.45" y2="99.01" gradientUnits="userSpaceOnUse"><stop offset="0.56" stop-color="#22b573"/><stop offset="1" stop-color="#ed1e79"/></linearGradient><linearGradient id="linear-gradient-23" x1="479.48" y1="105.76" x2="479.48" y2="98.6" xlink:href="#linear-gradient-22"/><linearGradient id="linear-gradient-24" x1="485.42" y1="106.58" x2="485.42" y2="98.94" xlink:href="#linear-gradient-22"/><linearGradient id="linear-gradient-25" x1="498.22" y1="248" x2="498.22" y2="106.45" gradientUnits="userSpaceOnUse"><stop offset="0.31" stop-color="#22b573"/><stop offset="1" stop-color="#c7b299"/></linearGradient><linearGradient id="linear-gradient-26" x1="495.25" y1="112.88" x2="495.25" y2="106.06" xlink:href="#linear-gradient-25"/><linearGradient id="linear-gradient-27" x1="501.19" y1="113.65" x2="501.19" y2="106.38" xlink:href="#linear-gradient-25"/><linearGradient id="linear-gradient-28" x1="513.99" y1="248" x2="513.99" y2="125.25" gradientUnits="userSpaceOnUse"><stop offset="0.53" stop-color="#22b573"/><stop offset="1" stop-color="#1b1464"/></linearGradient><linearGradient id="linear-gradient-29" x1="511.01" y1="130.84" x2="511.01" y2="124.89" xlink:href="#linear-gradient-28"/><linearGradient id="linear-gradient-30" x1="516.96" y1="131.51" x2="516.96" y2="125.17" xlink:href="#linear-gradient-28"/><linearGradient id="linear-gradient-31" x1="531.81" y1="247.23" x2="531.81" y2="103.07" gradientUnits="userSpaceOnUse"><stop offset="0.55" stop-color="#22b573"/><stop offset="1" stop-color="#f15a24"/></linearGradient><linearGradient id="linear-gradient-32" x1="528.84" y1="109.61" x2="528.84" y2="102.68" xlink:href="#linear-gradient-31"/><linearGradient id="linear-gradient-33" x1="534.78" y1="110.41" x2="534.78" y2="103" xlink:href="#linear-gradient-31"/><linearGradient id="linear-gradient-34" x1="466" y1="248" x2="466" y2="118.39" gradientUnits="userSpaceOnUse"><stop offset="0.54" stop-color="#22b573"/><stop offset="1" stop-color="#f2f2f2"/></linearGradient><linearGradient id="linear-gradient-35" x1="463.03" y1="124.28" x2="463.03" y2="118.02" xlink:href="#linear-gradient-34"/><linearGradient id="linear-gradient-36" x1="468.97" y1="124.99" x2="468.97" y2="118.31" xlink:href="#linear-gradient-34"/><linearGradient id="linear-gradient-37" x1="450.23" y1="247.23" x2="450.23" y2="106.45" gradientUnits="userSpaceOnUse"><stop offset="0.55" stop-color="#29af78"/><stop offset="1" stop-color="#f0f"/></linearGradient><linearGradient id="linear-gradient-38" x1="447.26" y1="112.84" x2="447.26" y2="106.06" xlink:href="#linear-gradient-37"/><linearGradient id="linear-gradient-39" x1="453.2" y1="113.61" x2="453.2" y2="106.38" xlink:href="#linear-gradient-37"/></defs><title>Asset 5</title><g id="Layer_2" data-name="Layer 2"><g id="Layer_1-2" data-name="Layer 1"><rect class="cls-1" width="1000" height="300"/><polyline class="cls-2" points="932.5 0 1000 0 1000 300 802.02 300"/><line class="cls-3" x1="378.25" y1="97.48" x2="378.25" y2="246.47"/><path class="cls-4" d="M377.87,97.48v149a.38.38,0,0,0,.75,0v-149a.38.38,0,0,0-.75,0Z"/><line class="cls-5" x1="378.31" y1="97.15" x2="372.24" y2="104.15"/><path class="cls-6" d="M378,96.89l-6.06,7c-.31.36.21.9.53.53l6.06-7c.31-.36-.21-.9-.53-.53Z"/><line class="cls-7" x1="378.65" y1="97.48" x2="383.79" y2="104.98"/><path class="cls-8" d="M378.32,97.67l5.14,7.5c.27.4.92,0,.65-.38L379,97.29c-.27-.4-.92,0-.65.38Z"/><path class="cls-9" d="M414.89,103.38V247.23a.38.38,0,0,0,.75,0V103.38a.38.38,0,0,0-.75,0Z"/><path class="cls-10" d="M415.06,102.81,409,109.56c-.32.36.21.89.53.53l6.06-6.75c.32-.36-.21-.89-.53-.53Z"/><path class="cls-11" d="M415.34,103.57l5.14,7.24c.28.39.93,0,.65-.38L416,103.2c-.28-.39-.93,0-.65.38Z"/><path class="cls-12" d="M432.72,90.6V247.23a.38.38,0,0,0,.75,0V90.6a.38.38,0,0,0-.75,0Z"/><path class="cls-13" d="M432.89,90l-6.06,7.35c-.3.37.22.9.53.53l6.06-7.35c.3-.37-.22-.9-.53-.53Z"/><path class="cls-14" d="M433.17,90.79l5.14,7.89c.26.4.91,0,.65-.38l-5.14-7.89c-.26-.4-.91,0-.65.38Z"/><path class="cls-15" d="M549.31,118.11V247.37a.38.38,0,0,0,.75,0V118.11a.38.38,0,0,0-.75,0Z"/><path class="cls-16" d="M549.48,117.56l-6.06,6.07a.38.38,0,0,0,.53.53l6.06-6.07a.38.38,0,0,0-.53-.53Z"/><path class="cls-17" d="M549.82,118.37l5.14,6.51c.3.38.83-.16.53-.53l-5.14-6.51c-.3-.38-.83.16-.53.53Z"/><path class="cls-18" d="M396.38,110.31V247.56a.38.38,0,0,0,.75,0V110.31a.38.38,0,0,0-.75,0Z"/><path class="cls-19" d="M396.55,109.75l-6.06,6.44c-.33.35.2.88.53.53l6.06-6.44c.33-.35-.2-.88-.53-.53Z"/><path class="cls-20" d="M396.83,110.5l5.14,6.91c.28.38.94,0,.65-.38l-5.14-6.91c-.28-.38-.94,0-.65.38Z"/><path class="cls-21" d="M567.08,125V247.4a.38.38,0,0,0,.75,0V125a.38.38,0,0,0-.75,0Z"/><path class="cls-22" d="M567.25,124.45l-6.06,5.75c-.35.33.18.86.53.53l6.06-5.75c.35-.33-.18-.86-.53-.53Z"/><path class="cls-23" d="M567.59,125.25l5.14,6.16c.31.37.84-.16.53-.53l-5.14-6.16c-.31-.37-.84.16-.53.53Z"/><path class="cls-24" d="M482.08,99V248a.38.38,0,0,0,.75,0V99a.38.38,0,0,0-.75,0Z"/><path class="cls-25" d="M482.25,98.42l-6.06,7c-.31.36.21.9.53.53l6.06-7c.31-.36-.21-.9-.53-.53Z"/><path class="cls-26" d="M482.53,99.2l5.14,7.5c.27.4.92,0,.65-.38l-5.14-7.5c-.27-.4-.92,0-.65.38Z"/><path class="cls-27" d="M497.84,106.45V248a.38.38,0,0,0,.75,0V106.45a.38.38,0,0,0-.75,0Z"/><path class="cls-28" d="M498,105.88,492,112.53c-.32.36.2.89.53.53l6.06-6.65c.32-.36-.2-.89-.53-.53Z"/><path class="cls-29" d="M498.29,106.64l5.14,7.13c.28.39.93,0,.65-.38l-5.14-7.13c-.28-.39-.93,0-.65.38Z"/><path class="cls-30" d="M513.61,125.25V248a.38.38,0,0,0,.75,0V125.25a.38.38,0,0,0-.75,0Z"/><path class="cls-31" d="M513.78,124.72l-6.06,5.76c-.35.33.18.86.53.53l6.06-5.76c.35-.33-.18-.86-.53-.53Z"/><path class="cls-32" d="M514.12,125.52l5.14,6.18c.31.37.84-.16.53-.53L514.65,125c-.31-.37-.84.16-.53.53Z"/><path class="cls-33" d="M531.43,103.07V247.23a.38.38,0,0,0,.75,0V103.07a.38.38,0,0,0-.75,0Z"/><path class="cls-34" d="M531.61,102.5l-6.06,6.77c-.32.36.21.89.53.53l6.06-6.77c.32-.36-.21-.89-.53-.53Z"/><path class="cls-35" d="M531.89,103.26l5.14,7.26c.28.39.93,0,.65-.38l-5.14-7.26c-.28-.39-.93,0-.65.38Z"/><path class="cls-36" d="M465.62,118.39V248a.38.38,0,0,0,.75,0V118.39a.38.38,0,0,0-.75,0Z"/><path class="cls-37" d="M465.79,117.84l-6.06,6.09a.38.38,0,0,0,.53.53l6.06-6.09a.38.38,0,0,0-.53-.53Z"/><path class="cls-38" d="M466.13,118.65l5.14,6.53c.3.38.83-.16.53-.53l-5.14-6.53c-.3-.38-.83.16-.53.53Z"/><path class="cls-39" d="M449.85,106.45V247.23a.38.38,0,0,0,.75,0V106.45a.38.38,0,0,0-.75,0Z"/><path class="cls-40" d="M450,105.88,444,112.49c-.33.36.2.89.53.53l6.06-6.61c.33-.36-.2-.89-.53-.53Z"/><path class="cls-41" d="M450.31,106.64l5.14,7.09c.28.39.93,0,.65-.38L451,106.26c-.28-.39-.93,0-.65.38Z"/><text class="cls-42" transform="translate(404.17 74.92) scale(0.91 1)">GROWUP</text><text class="cls-43" transform="translate(478.17 74.92) scale(0.91 1)">WITHUS</text></g></g></svg>